# xmcd
#
# Track frame offsets:
#	153
#	13042
#	29108
#	43820
#	57465
#	69200
#	86723
#	103460
#	119334
#	131630
#	146092
#	160201
#
# Disc length: 2298 seconds
#
# Revision: 1
# Processed by: cddbd v1.5.2PL0 Copyright (c) Steve Scherf et al.
# Submitted via: audiograbber 1.83.01
#
DISCID=b508f80c
DTITLE=Tom Maxwell - On The Road
DYEAR=2000
DGENRE=Country
TTITLE0=Walk A Country Mile
TTITLE1=By A Fire Of Gidgee Coals
TTITLE2=Kelly's Offsider
TTITLE3=Gumtrees ByThe Roadway
TTITLE4=Things Are Not The Same On The Land
TTITLE5=Coley
TTITLE6=God Must Have Been A Cowboy
TTITLE7=The Lady Is A Truckie
TTITLE8=Jodi
TTITLE9=Axemark On A Gidgee
TTITLE10=Homestead Of My Dreams
TTITLE11=Brown Bottle Blues
EXTD=
EXTT0=
EXTT1=
EXTT2=
EXTT3=
EXTT4=
EXTT5=
EXTT6=
EXTT7=
EXTT8=
EXTT9=
EXTT10=
EXTT11=
PLAYORDER=
